<?xml version="1.0" encoding="utf-8"?>
<!-- Generator: Adobe Illustrator 28.1.0, SVG Export Plug-In . SVG Version: 6.00 Build 0)  -->
<svg version="1.1" id="Camada_1" xmlns="http://www.w3.org/2000/svg" xmlns:xlink="http://www.w3.org/1999/xlink" x="0px" y="0px"
	 viewBox="0 0 255.12 145.41" style="enable-background:new 0 0 255.12 145.41;" xml:space="preserve">
<style type="text/css">
	.st0{fill:#1C5899;}
	.st1{fill:none;stroke:#1C5899;stroke-width:4;stroke-miterlimit:10;}
	.st2{fill:#1B5798;}
</style>
<g>
	<g>
		<g>
			<path class="st0" d="M127.56,72.95c-19.01,0-34.49-16.36-34.49-36.47S108.54,0,127.56,0s34.49,16.36,34.49,36.47
				S146.57,72.95,127.56,72.95z M127.56,12.64c-12.04,0-21.84,10.69-21.84,23.83s9.8,23.83,21.84,23.83
				c12.04,0,21.84-10.69,21.84-23.83S139.6,12.64,127.56,12.64z"/>
		</g>
		<g>
			<path class="st0" d="M187.53,145.41h-12.64c0-26.09-21.23-47.32-47.32-47.32s-47.32,21.23-47.32,47.32H67.59
				c0-33.07,26.9-59.97,59.97-59.97S187.53,112.34,187.53,145.41z"/>
		</g>
	</g>
	<g>
		<g>
			<path class="st0" d="M211.76,65.74c-13.75,0-24.93-11.83-24.93-26.37S198.02,13,211.76,13c13.75,0,24.93,11.83,24.93,26.37
				S225.51,65.74,211.76,65.74z M211.76,22.14c-8.71,0-15.79,7.73-15.79,17.23s7.08,17.23,15.79,17.23
				c8.71,0,15.79-7.73,15.79-17.23S220.47,22.14,211.76,22.14z"/>
		</g>
		<g>
			<path class="st0" d="M255.12,118.12h-9.14c0-18.87-15.35-34.21-34.21-34.21s-34.21,15.35-34.21,34.21h-9.14
				c0-23.91,19.45-43.35,43.35-43.35S255.12,94.21,255.12,118.12z"/>
		</g>
	</g>
	<g>
		<g>
			<path class="st0" d="M43.35,65.74c-13.75,0-24.93-11.83-24.93-26.37S29.61,13,43.35,13s24.93,11.83,24.93,26.37
				S57.1,65.74,43.35,65.74z M43.35,22.14c-8.71,0-15.79,7.73-15.79,17.23S34.65,56.6,43.35,56.6s15.79-7.73,15.79-17.23
				S52.06,22.14,43.35,22.14z"/>
		</g>
		<g>
			<path class="st0" d="M86.71,118.12h-9.14c0-18.87-15.35-34.21-34.21-34.21S9.14,99.25,9.14,118.12H0
				c0-23.91,19.45-43.35,43.35-43.35S86.71,94.21,86.71,118.12z"/>
		</g>
	</g>
</g>
</svg>
