<?xml version="1.0" encoding="utf-8"?>
<!-- Generator: Adobe Illustrator 28.1.0, SVG Export Plug-In . SVG Version: 6.00 Build 0)  -->
<svg version="1.1" id="Camada_1" xmlns="http://www.w3.org/2000/svg" xmlns:xlink="http://www.w3.org/1999/xlink" x="0px" y="0px"
	 viewBox="0 0 198.42 240.56" style="enable-background:new 0 0 198.42 240.56;" xml:space="preserve">
<style type="text/css">
	.st0{fill:#1C5899;}
	.st1{fill:none;stroke:#1C5899;stroke-width:4;stroke-miterlimit:10;}
	.st2{fill:#1B5798;}
</style>
<g>
	<g>
		<path class="st0" d="M99.21,120.68c-31.46,0-57.05-27.07-57.05-60.34S67.75,0,99.21,0s57.05,27.07,57.05,60.34
			S130.67,120.68,99.21,120.68z M99.21,20.92c-19.92,0-36.13,17.68-36.13,39.42s16.21,39.42,36.13,39.42s36.13-17.69,36.13-39.42
			S119.14,20.92,99.21,20.92z"/>
	</g>
	<g>
		<path class="st0" d="M198.42,240.56h-20.92c0-43.17-35.12-78.29-78.29-78.29s-78.29,35.12-78.29,78.29H0
			c0-54.71,44.51-99.21,99.21-99.21S198.42,185.85,198.42,240.56z"/>
	</g>
</g>
</svg>
